<mxfile host="app.diagrams.net" modified="2023-05-10T21:45:36.992Z" agent="Mozilla/5.0 (X11; Linux x86_64; rv:108.0) Gecko/20100101 Firefox/108.0" etag="criuMona1OTEMDZjetW1" version="21.2.9" type="device">
  <diagram name="Page-1" id="ydjz0dapqU2Nu1RCDTIV">
    <mxGraphModel dx="1410" dy="1824" grid="1" gridSize="10" guides="1" tooltips="1" connect="1" arrows="1" fold="1" page="1" pageScale="1" pageWidth="850" pageHeight="1100" math="0" shadow="0">
      <root>
        <mxCell id="0" />
        <mxCell id="1" parent="0" />
        <mxCell id="ofTlYQ7N_XRBszg6orTm-1" style="rounded=0;orthogonalLoop=1;jettySize=auto;html=1;strokeWidth=5;strokeColor=#009900;" edge="1" parent="1" source="ofTlYQ7N_XRBszg6orTm-5" target="ofTlYQ7N_XRBszg6orTm-6">
          <mxGeometry relative="1" as="geometry" />
        </mxCell>
        <mxCell id="ofTlYQ7N_XRBszg6orTm-2" value="&amp;nbsp;Enrolled&amp;nbsp; " style="edgeLabel;html=1;align=center;verticalAlign=middle;resizable=0;points=[];fontSize=18;labelBackgroundColor=#D5E8D4;labelBorderColor=#97D077;" vertex="1" connectable="0" parent="ofTlYQ7N_XRBszg6orTm-1">
          <mxGeometry x="-0.3732" y="-3" relative="1" as="geometry">
            <mxPoint x="2" y="13" as="offset" />
          </mxGeometry>
        </mxCell>
        <mxCell id="ofTlYQ7N_XRBszg6orTm-3" style="edgeStyle=orthogonalEdgeStyle;rounded=0;orthogonalLoop=1;jettySize=auto;html=1;strokeWidth=5;fillColor=#d5e8d4;strokeColor=#009900;" edge="1" parent="1" source="ofTlYQ7N_XRBszg6orTm-5" target="ofTlYQ7N_XRBszg6orTm-9">
          <mxGeometry relative="1" as="geometry">
            <Array as="points">
              <mxPoint x="370" y="-490" />
              <mxPoint x="370" y="-490" />
            </Array>
          </mxGeometry>
        </mxCell>
        <mxCell id="ofTlYQ7N_XRBszg6orTm-4" value="&lt;font style=&quot;font-size: 18px;&quot;&gt;&amp;nbsp;Knows&amp;nbsp; &lt;br&gt;&lt;/font&gt;" style="edgeLabel;html=1;align=center;verticalAlign=middle;resizable=0;points=[];labelBackgroundColor=#D5E8D4;labelBorderColor=#97D077;" vertex="1" connectable="0" parent="ofTlYQ7N_XRBszg6orTm-3">
          <mxGeometry x="-0.1462" y="-2" relative="1" as="geometry">
            <mxPoint x="8" as="offset" />
          </mxGeometry>
        </mxCell>
        <mxCell id="ofTlYQ7N_XRBszg6orTm-5" value="Qui-Gon" style="ellipse;whiteSpace=wrap;html=1;aspect=fixed;strokeWidth=3;fontSize=23;fillColor=#d5e8d4;strokeColor=#82b366;" vertex="1" parent="1">
          <mxGeometry x="180" y="-550" width="110" height="110" as="geometry" />
        </mxCell>
        <mxCell id="ofTlYQ7N_XRBszg6orTm-6" value="Jedi 101" style="ellipse;whiteSpace=wrap;html=1;aspect=fixed;strokeWidth=3;fontSize=23;fillColor=#d5e8d4;strokeColor=#82b366;" vertex="1" parent="1">
          <mxGeometry x="320" y="-320" width="110" height="110" as="geometry" />
        </mxCell>
        <mxCell id="ofTlYQ7N_XRBszg6orTm-7" style="rounded=0;orthogonalLoop=1;jettySize=auto;html=1;strokeWidth=5;fillColor=#d5e8d4;strokeColor=#009900;" edge="1" parent="1" source="ofTlYQ7N_XRBszg6orTm-9" target="ofTlYQ7N_XRBszg6orTm-6">
          <mxGeometry relative="1" as="geometry" />
        </mxCell>
        <mxCell id="ofTlYQ7N_XRBszg6orTm-8" value="&amp;nbsp;Enrolled&amp;nbsp; " style="edgeLabel;html=1;align=center;verticalAlign=middle;resizable=0;points=[];fontSize=18;labelBackgroundColor=#D5E8D4;labelBorderColor=#97D077;" vertex="1" connectable="0" parent="ofTlYQ7N_XRBszg6orTm-7">
          <mxGeometry x="-0.2334" relative="1" as="geometry">
            <mxPoint y="6" as="offset" />
          </mxGeometry>
        </mxCell>
        <mxCell id="ofTlYQ7N_XRBszg6orTm-9" value="Anakin" style="ellipse;whiteSpace=wrap;html=1;aspect=fixed;strokeWidth=3;fontSize=23;fillColor=#d5e8d4;strokeColor=#82b366;" vertex="1" parent="1">
          <mxGeometry x="470" y="-550" width="110" height="110" as="geometry" />
        </mxCell>
      </root>
    </mxGraphModel>
  </diagram>
</mxfile>
